<svg xmlns="http://www.w3.org/2000/svg" width="96.875" height="94.455" viewBox="0 0 96.875 94.455">
  <path id="Icon_awesome-github" data-name="Icon awesome-github" d="M32.4,77.617c0,.391-.449.7-1.016.7-.645.059-1.094-.254-1.094-.7,0-.391.449-.7,1.016-.7C31.895,76.855,32.4,77.168,32.4,77.617Zm-6.074-.879c-.137.391.254.84.84.957a.916.916,0,0,0,1.211-.391c.117-.391-.254-.84-.84-1.016A1,1,0,0,0,26.328,76.738Zm8.633-.332c-.566.137-.957.508-.9.957.059.391.566.645,1.152.508.566-.137.957-.508.9-.9C36.055,76.6,35.527,76.348,34.961,76.406ZM47.813,1.563C20.723,1.563,0,22.129,0,49.219A48.967,48.967,0,0,0,33.105,95.938c2.5.449,3.379-1.094,3.379-2.363,0-1.211-.059-7.891-.059-11.992,0,0-13.672,2.93-16.543-5.82,0,0-2.227-5.684-5.43-7.148,0,0-4.473-3.066.313-3.008A10.31,10.31,0,0,1,22.3,70.645c4.277,7.539,11.445,5.371,14.238,4.082a10.855,10.855,0,0,1,3.125-6.582C28.75,66.934,17.734,65.352,17.734,46.563c0-5.371,1.484-8.066,4.609-11.5A18.453,18.453,0,0,1,22.852,21.8c4.082-1.27,13.477,5.273,13.477,5.273a46.141,46.141,0,0,1,24.531,0s9.395-6.562,13.477-5.273a18.445,18.445,0,0,1,.508,13.262c3.125,3.457,5.039,6.152,5.039,11.5,0,18.848-11.5,20.352-22.422,21.582,1.8,1.543,3.32,4.473,3.32,9.063,0,6.582-.059,14.727-.059,16.328,0,1.27.9,2.813,3.379,2.363,19.531-6.484,32.773-25.02,32.773-46.68C96.875,22.129,74.9,1.563,47.813,1.563ZM18.984,68.926c-.254.2-.2.645.137,1.016.313.313.762.449,1.016.2.254-.2.2-.645-.137-1.016C19.688,68.809,19.238,68.672,18.984,68.926Zm-2.109-1.582c-.137.254.059.566.449.762a.581.581,0,0,0,.84-.137c.137-.254-.059-.566-.449-.762C17.324,67.09,17.012,67.148,16.875,67.344ZM23.2,74.3c-.312.254-.2.84.254,1.211.449.449,1.016.508,1.27.2.254-.254.137-.84-.254-1.211C24.043,74.043,23.457,73.984,23.2,74.3Zm-2.227-2.871c-.312.2-.312.7,0,1.152s.84.645,1.094.449a.891.891,0,0,0,0-1.211C21.8,71.367,21.289,71.172,20.977,71.426Z" transform="translate(0 -1.563)"/>
</svg>
