<svg xmlns="http://www.w3.org/2000/svg" width="100" height="81.218" viewBox="0 0 100 81.218">
  <path id="Icon_awesome-twitter" data-name="Icon awesome-twitter" d="M89.721,29.632c.063.888.063,1.777.063,2.665,0,27.094-20.622,58.312-58.312,58.312A57.917,57.917,0,0,1,0,81.409a42.4,42.4,0,0,0,4.949.254,41.045,41.045,0,0,0,25.444-8.756A20.531,20.531,0,0,1,11.231,58.693a25.846,25.846,0,0,0,3.871.317,21.676,21.676,0,0,0,5.393-.7A20.5,20.5,0,0,1,4.061,38.2v-.254a20.64,20.64,0,0,0,9.264,2.6A20.525,20.525,0,0,1,6.979,13.135,58.256,58.256,0,0,0,49.238,34.581a23.136,23.136,0,0,1-.508-4.7A20.514,20.514,0,0,1,84.2,15.863a40.351,40.351,0,0,0,13.008-4.949A20.44,20.44,0,0,1,88.2,22.208,41.086,41.086,0,0,0,100,19.036a44.056,44.056,0,0,1-10.279,10.6Z" transform="translate(0 -9.391)"/>
</svg>
